<?xml version="1.0" encoding="UTF-8"?>
<svg id="Layer_1" data-name="Layer 1" xmlns="http://www.w3.org/2000/svg" viewBox="0 0 4.09 4.57">
  <defs>
    <style>
      .cls-1 {
        fill: #ef4e2c;
      }
    </style>
  </defs>
  <path class="cls-1" d="M.57,4.55c-.11,0-.21-.05-.28-.13s-.1-.18-.1-.29L.06,1.4s0-.04,0-.06v-.16s.04-.06.08-.06h.93c.01-.37.19-.74.51-.95C1.86,0,2.19-.01,2.48.15c.35.19.55.58.56.98h.94s.08.04.08.09l-.15,2.96c0,.2-.18.38-.39.38H.57ZM2.77,1.13c0-.3-.16-.61-.42-.75-.2-.11-.44-.1-.64.02-.24.15-.37.44-.38.72h1.43ZM2.02,3.96c.15,0,.29-.01.42-.07.25-.11.39-.38.34-.65-.02-.11-.08-.2-.15-.27-.15-.14-.38-.23-.57-.3-.14-.05-.28-.1-.39-.21s-.12-.25-.04-.38c.04-.06.1-.11.17-.14.1-.05.2-.06.31-.05.17.02.33.07.47.17.01,0,.03,0,.04,0l.08-.12s0-.04-.01-.05c-.22-.14-.47-.21-.73-.19-.29.03-.56.23-.58.53,0,.13.03.25.11.35.07.08.15.14.24.18.15.07.3.12.45.18.12.04.25.11.33.21.12.14.1.35-.04.47-.06.05-.13.08-.2.11s-.15.03-.23.03c-.22-.01-.42-.1-.59-.24-.01-.01-.04-.03-.05,0l-.09.13s0,.03,0,.04c.06.05.13.1.2.14.16.09.34.13.53.15Z"/>
</svg>