<?xml version="1.0" encoding="UTF-8"?>
<svg id="Layer_1" data-name="Layer 1" xmlns="http://www.w3.org/2000/svg" viewBox="0 0 4.09 4.57">
  <defs>
    <style>
      .cls-1 {
        fill: #080707;
      }

      .cls-2 {
        fill: #6cc8d0;
      }

      .cls-3 {
        fill: #eb3b59;
      }
    </style>
  </defs>
  <path class="cls-1" d="M2.81.24c.03.25.19.5.42.62.02.04.07.07.09.1.12.15.31.22.5.28,0,.19.01.38,0,.58-.37,0-.69-.1-1.01-.31v1.45c0,.5-.26.94-.65,1.18-.45.28-.95.25-1.4.04-.04-.04-.09-.08-.13-.13-.35-.4-.44-.97-.19-1.49.21-.44.68-.75,1.19-.76,0,.19.02.38-.01.58-.34-.08-.63.08-.74.37-.1.25-.02.6.24.71.03.01.04.04.06.07.15.22.43.3.69.21.22-.08.41-.29.41-.56V.23c.22,0,.39-.01.55,0Z"/>
  <path class="cls-3" d="M.74,4.18c.46.21.95.24,1.4-.04.39-.24.65-.68.65-1.18v-1.45c.32.2.64.32,1.01.31.02-.2,0-.39,0-.58,0,0,0-.01,0-.02.06.03.12.03.21.04v.74c-.37,0-.7-.11-1.01-.31v1.49c-.01.55-.34,1.02-.81,1.23-.5.22-1.09.14-1.46-.23Z"/>
  <path class="cls-2" d="M2.81.22v.02c-.17-.02-.33,0-.54,0v2.95c0,.27-.19.49-.42.56-.26.09-.54,0-.69-.21.19.07.38.09.57-.02.14-.08.3-.25.3-.46V.05s.74,0,.74,0c.02.06.02.12.03.18Z"/>
  <path class="cls-2" d="M1.61,1.8c-.52.01-.99.32-1.19.76-.24.51-.16,1.08.19,1.49C.1,3.71-.07,3.02.17,2.44c.23-.55.82-.9,1.42-.82.03.06.02.13.01.17Z"/>
  <path class="cls-3" d="M1.1,3.47c-.26-.11-.34-.46-.24-.71.12-.29.41-.45.74-.37.03-.2,0-.39.01-.58.07,0,.14,0,.21.03v.74c-.27-.07-.52.02-.68.23-.15.19-.15.44-.05.67Z"/>
  <path class="cls-3" d="M3.22.86c-.23-.12-.39-.37-.42-.62v-.02s.19.02.19.02c0,.24.08.45.22.62Z"/>
  <path class="cls-2" d="M3.81,1.22s0,.01,0,.02c-.19-.06-.38-.13-.5-.28.15.05.31.11.48.11.03.04.02.11.02.15Z"/>
</svg>