<?xml version="1.0" encoding="UTF-8"?>
<svg id="Layer_1" data-name="Layer 1" xmlns="http://www.w3.org/2000/svg" viewBox="0 0 4.09 4.57">
  <defs>
    <style>
      .cls-1 {
        fill: #f2c268;
      }

      .cls-2 {
        fill: #474646;
      }

      .cls-3 {
        fill: #f1e6a4;
      }

      .cls-4 {
        fill: #474946;
      }

      .cls-5 {
        fill: #e0e0df;
      }

      .cls-6 {
        fill: #494b48;
      }
    </style>
  </defs>
  <path class="cls-4" d="M.08,4.5v-.12s.04-.01.04-.05V.99s-.03-.05-.04-.05v-.04c.32-.04.64-.02,1-.03C1.19.39,1.59.06,2.08.08c.45.01.84.34.93.81.35-.01.65-.02,1,0v2.41c-.02.6-.55,1.17-1.16,1.17l-2.78.02ZM2.05,1.09c.24-.11.46-.15.7-.18-.08-.36-.37-.57-.7-.57s-.61.21-.69.56c.25.04.46.08.69.19ZM2.05,1.98c.24-.33.58-.55,1.01-.47.4.07.68.39.77.82l.03-1.28c-.57-.01-1.26-.05-1.8.22-.57-.27-1.15-.24-1.82-.22,0,.43-.03.83.02,1.28.09-.42.35-.74.75-.81.42-.08.8.12,1.05.47ZM.49,2.14s-.03.03-.03.05c-.02.07.02.15.03.22-.15.33.26.76.69.77.47.01.89-.47.72-.75.03-.07.05-.15.04-.24,0-.02,0-.06-.04-.05-.1-.3-.4-.5-.73-.49-.3,0-.59.2-.69.49ZM2.19,2.14s-.03.03-.04.05c-.01.08,0,.16,0,.24-.02.4.33.73.73.74.42.01.79-.33.77-.74,0-.08,0-.16,0-.24,0-.02,0-.06-.04-.05-.1-.3-.4-.5-.73-.49-.3,0-.59.2-.69.49ZM.57,4.34c.5.02,1,0,1.49,0h.75c.29,0,.45-.14.63-.28.5-.41.45-.83.39-1.55-.09.52-.5.85-1.02.84-.09-.02-.18-.06-.29-.08l-.5.49c-.14-.17-.3-.33-.46-.49l-.29.08c-.5,0-.9-.3-1.01-.84l-.03,1.83c.14.04.24,0,.34.01ZM2.06,3.54c.11-.07.26-.19.3-.31,0-.11-.18-.17-.3-.17-.11,0-.31.03-.33.17.07.11.2.29.33.31Z"/>
  <path class="cls-6" d="M.08,4.37V.94s.04.01.04.05v3.34s-.03.05-.04.05Z"/>
  <path class="cls-5" d="M.83,2.63c.12.19.32.32.55.28.22-.04.42-.25.42-.48h.1c.17.27-.25.76-.72.74-.43-.01-.84-.45-.69-.77.16.02.15.19.35.23Z"/>
  <path class="cls-5" d="M2.3,2.44c.02.24.19.43.42.48s.43-.09.54-.28c.22-.04.19-.25.39-.2.02.42-.35.75-.77.74s-.75-.34-.73-.74c.05,0,.1,0,.15,0Z"/>
  <path class="cls-3" d="M2.06,3.06c-.02.16-.01.32,0,.48-.13-.02-.26-.21-.33-.31.02-.14.22-.17.33-.17Z"/>
  <path class="cls-1" d="M2.06,3.54c-.02-.16-.02-.32,0-.48.12,0,.31.06.3.17-.04.12-.19.25-.3.31Z"/>
  <path class="cls-2" d="M3.26,2.63c-.11.19-.32.32-.54.28s-.4-.24-.42-.48c0-.09.04-.18.08-.25.08.15.21.17.32.12.13-.05.15-.21.11-.35.18-.01.32.09.41.22.09.14.08.31.04.46Z"/>
  <path class="cls-2" d="M1.79,2.43c0,.24-.2.44-.42.48-.23.04-.43-.09-.55-.28-.03-.14-.06-.28.03-.42.1.11.24.16.37.07.09-.06.11-.2.07-.34.26-.01.49.22.5.48Z"/>
</svg>